<svg width="256" height="256" viewBox="0 0 256 256" fill="none" xmlns="http://www.w3.org/2000/svg">
<mask id="path-1-inside-1_11_76" fill="white">
<path d="M222.343 0C223.404 0 224.422 0.421729 225.172 1.17188L254.828 30.8281C255.578 31.5783 256 32.5964 256 33.6572V240C256 248.837 248.837 256 240 256H16C7.16344 256 0 248.837 0 240V16C0 7.16344 7.16344 0 16 0H222.343Z"/>
</mask>
<path d="M222.343 0C223.404 0 224.422 0.421729 225.172 1.17188L254.828 30.8281C255.578 31.5783 256 32.5964 256 33.6572V240C256 248.837 248.837 256 240 256H16C7.16344 256 0 248.837 0 240V16C0 7.16344 7.16344 0 16 0H222.343Z" fill="white"/>
<path d="M225.172 1.17188L219.515 6.82873L225.172 1.17188ZM254.828 30.8281L260.485 25.1713L254.828 30.8281ZM222.343 0V8C221.282 8 220.265 7.57879 219.515 6.82873L225.172 1.17188L230.829 -4.48498C228.578 -6.73533 225.525 -8 222.343 -8V0ZM225.172 1.17188L219.515 6.82873L249.171 36.485L254.828 30.8281L260.485 25.1713L230.829 -4.48498L225.172 1.17188ZM254.828 30.8281L249.171 36.485C248.421 35.7349 248 34.7182 248 33.6572H256H264C264 30.4745 262.735 27.4216 260.485 25.1713L254.828 30.8281ZM256 33.6572H248V240H256H264V33.6572H256ZM256 240H248C248 244.418 244.418 248 240 248V256V264C253.255 264 264 253.255 264 240H256ZM240 256V248H16V256V264H240V256ZM16 256V248C11.5817 248 8 244.418 8 240H0H-8C-8 253.255 2.74517 264 16 264V256ZM0 240H8V16H0H-8V240H0ZM0 16H8C8 11.5817 11.5817 8 16 8V0V-8C2.74517 -8 -8 2.74517 -8 16H0ZM16 0V8H222.343V0V-8H16V0Z" fill="black" mask="url(#path-1-inside-1_11_76)"/>
<path d="M48 132H208C214.627 132 220 137.373 220 144V252H36V144C36 137.373 41.3726 132 48 132Z" fill="white" stroke="black" stroke-width="8"/>
<path d="M64 92H192C198.627 92 204 86.6274 204 80V4H52V80C52 86.6274 57.3726 92 64 92Z" fill="white" stroke="black" stroke-width="8"/>
<rect x="164" y="20" width="24" height="56" rx="4" fill="white" stroke="black" stroke-width="8"/>
</svg>
